<?xml version="1.0" encoding="utf-8" standalone="yes"?>
<!DOCTYPE svg PUBLIC "-//W3C//DTD SVG 1.1//EN" "http://www.w3.org/Graphics/SVG/1.1/DTD/svg11.dtd">
<svg xmlns="http://www.w3.org/2000/svg" xmlns:xlink="http://www.w3.org/1999/xlink" xmlns:dc="http://purl.org/dc/elements/1.1/" xmlns:cc="http://web.resource.org/cc/" xmlns:rdf="http://www.w3.org/1999/02/22-rdf-syntax-ns#" xmlns:sodipodi="http://sodipodi.sourceforge.net/DTD/sodipodi-0.dtd" xmlns:inkscape="http://www.inkscape.org/namespaces/inkscape" version="1.1" baseProfile="full" width="24px" height="24px" viewBox="0 0 24 24" preserveAspectRatio="xMidYMid meet" id="svg_document" style="zoom: 1;"><title id="svg_document_title"></title><defs id="svg_document_defs"></defs><g id="main_group"><rect id="background_rect" fill="#ffc107" x="0px" y="0px" width="24px" height="24px"></rect><path fill="#000" d="M7,5 h10 v2 h2 V3 c0,-1.1 -.9,-1.99 -2,-1.99 L7,1 c-1.1,0 -2,.9 -2,2 v4 h2 V5 m8.41,11.59 L20,12 l-4.59,-4.59 L14,8.83 L17.17,12 L14,15.17 l1.41,1.42 M10,15.17 L6.83,12 L10,8.83 L8.59,7.41 L4,12 l4.59,4.59 L10,15.17 M17,19 H7 v-2 H5 v4 c0,1.1 .9,2 2,2 h10 c1.1,0 2,-.9 2,-2 v-4 h-2 v2  z "></path></g></svg>