<?xml version="1.0" encoding="UTF-8" standalone="no"?>
<svg
   xmlns:dc="http://purl.org/dc/elements/1.1/"
   xmlns:cc="http://creativecommons.org/ns#"
   xmlns:rdf="http://www.w3.org/1999/02/22-rdf-syntax-ns#"
   xmlns:svg="http://www.w3.org/2000/svg"
   xmlns="http://www.w3.org/2000/svg"
   version="1.1"
   width="240px"
   height="240px"
   viewBox="0 0 240 240"
   preserveAspectRatio="xMidYMid meet"
   id="svg_document"
   style="zoom: 1;">
  <metadata
     id="metadata827">
    <rdf:RDF>
      <cc:Work
         rdf:about="">
        <dc:format>image/svg+xml</dc:format>
        <dc:type
           rdf:resource="http://purl.org/dc/dcmitype/StillImage" />
        <dc:title></dc:title>
      </cc:Work>
    </rdf:RDF>
  </metadata>
  <style
     id="style815">
   circle { fill:#ffc107; stroke: none; }
   path { fill: none; stroke: #000; stroke-width: 12; }
</style>
  <defs
     id="svg_document_defs" />
  <rect
     y="0"
     x="0"
     height="240"
     width="240"
     id="rect874"
     style="fill:#ffc107;fill-opacity:1;stroke:none;stroke-width:5;stroke-linecap:round;stroke-linejoin:round;stroke-miterlimit:4;stroke-dasharray:none;stroke-opacity:1" />
  <circle
     id="circle818"
     cx="120"
     cy="120"
     r="96"
     style="fill:#ffc107;stroke:none;stroke-width:0.80000001" />
  <g
     transform="translate(1.9999982,5.9999995)"
     id="g851">
    <path
       style="fill:none;stroke:#000000;stroke-width:9.60000038"
       d="m 155.00806,85.402086 a 19.261648,19.261648 0 0 0 -7.67379,1.564853 L 54.041216,127.05123 a 19.261648,19.261648 0 0 0 7.602332,36.95459 H 170.34815 a 19.261648,19.261648 0 0 0 17.97698,-26.16989 L 172.91735,97.751629 A 19.261648,19.261648 0 0 0 155.00806,85.402086 Z"
       id="path820" />
    <path
       style="fill:none;stroke:#000000;stroke-width:9.60000038"
       d="m 80.991948,142.59791 a 19.261648,19.261648 0 0 0 7.673786,-1.56485 L 181.95879,100.94877 A 19.261648,19.261648 0 0 0 174.35646,63.994181 H 65.651869 A 19.261648,19.261648 0 0 0 47.674881,90.16409 l 15.407779,40.08429 a 19.261648,19.261648 0 0 0 17.909288,12.34953 z"
       id="path822" />
  </g>
</svg>
