<?xml version="1.0" encoding="UTF-8" standalone="no"?>
<svg
   xmlns:dc="http://purl.org/dc/elements/1.1/"
   xmlns:cc="http://creativecommons.org/ns#"
   xmlns:rdf="http://www.w3.org/1999/02/22-rdf-syntax-ns#"
   xmlns:svg="http://www.w3.org/2000/svg"
   xmlns="http://www.w3.org/2000/svg"
   style="zoom: 1;"
   id="svg_document"
   preserveAspectRatio="xMidYMid meet"
   viewBox="0 0 240 240"
   height="24px"
   width="24px"
   version="1.1">
  <metadata
     id="metadata11">
    <rdf:RDF>
      <cc:Work
         rdf:about="">
        <dc:format>image/svg+xml</dc:format>
        <dc:type
           rdf:resource="http://purl.org/dc/dcmitype/StillImage" />
        <dc:title></dc:title>
      </cc:Work>
    </rdf:RDF>
  </metadata>
  <style
     id="style2309">path { fill: none; stroke: #000; stroke-width: 5; }</style>
  <defs
     id="svg_document_defs" />
  <rect
     id="background_rect"
     x="0"
     y="0"
     width="240"
     height="240"
     style="fill:#ffc107;stroke-width:1" />
  <g
     transform="translate(6.7663997e-7,6e-6)"
     id="g845">
    <path
       d="m 160.61988,87.096442 a 20.057546,20.057546 0 0 0 -7.99087,1.629513 L 55.481054,130.46655 a 20.057546,20.057546 0 0 0 7.916463,38.48156 H 176.59382 a 20.057546,20.057546 0 0 0 18.7198,-27.25124 L 179.26919,99.956274 A 20.057546,20.057546 0 0 0 160.61988,87.096442 Z"
       id="rect855-2"
       style="fill:none;stroke:#000000;stroke-width:10.02777004" />
    <path
       d="m 79.380118,152.90354 a 20.057546,20.057546 0 0 0 7.99087,-1.62951 L 184.51894,109.53344 A 20.057546,20.057546 0 0 0 176.60248,71.051878 H 63.406181 A 20.057546,20.057546 0 0 0 44.686379,98.303137 l 16.044433,41.740583 a 20.057546,20.057546 0 0 0 18.649306,12.85982 z"
       id="rect855-2-9"
       style="fill:none;stroke:#000000;stroke-width:10.02777004" />
  </g>
</svg>
